<?xml version="1.0" encoding="utf-8"?>
<!-- Generator: Adobe Illustrator 24.3.0, SVG Export Plug-In . SVG Version: 6.00 Build 0)  -->
<svg version="1.1" id="Layer_1" xmlns="http://www.w3.org/2000/svg" xmlns:xlink="http://www.w3.org/1999/xlink" x="0px" y="0px"
	 viewBox="0 0 88 90.11" style="enable-background:new 0 0 88 90.11;" xml:space="preserve">
<style type="text/css">
	.st0{fill-rule:evenodd;clip-rule:evenodd;fill:#2F449C;}
	.st1{fill-rule:evenodd;clip-rule:evenodd;fill:#FFD600;}
	.st2{fill-rule:evenodd;clip-rule:evenodd;fill:#FFFFFF;}
	.st3{fill-rule:evenodd;clip-rule:evenodd;fill:#FF4713;}
</style>
<g>
	<polygon class="st0" points="88,90.11 0,90.11 0,0 88,0 88,90.11 	"/>
	<path class="st1" d="M43.58,67.89c-1.3-0.07-1.35-1.65,0-1.65c0.77,0,1.7,0.12,1.7-0.85c0-0.5-0.4-0.85-0.88-0.85h-2.97
		c-1.1,0-1.1-1.67,0-1.67h2.97c1.53,0,2.53,1.27,2.53,2.55c0,1.4-1.15,2.47-2.53,2.47C44.18,67.89,43.85,67.91,43.58,67.89
		L43.58,67.89z"/>
	<path class="st2" d="M61.9,76.47c-4.28,0-7.76-3.47-7.76-7.76c0-4.28,3.47-7.76,7.76-7.76c4.28,0,7.76,3.47,7.76,7.76
		C69.66,72.99,66.19,76.47,61.9,76.47L61.9,76.47z M61.9,59.13c-5.29,0-9.58,4.29-9.58,9.58c0,5.29,4.29,9.58,9.58,9.58
		c5.29,0,9.58-4.29,9.58-9.58C71.48,63.42,67.19,59.13,61.9,59.13L61.9,59.13z"/>
	<path class="st2" d="M61.9,72.97c-2.35,0-4.26-1.91-4.26-4.26c0-2.35,1.91-4.26,4.26-4.26c2.35,0,4.26,1.91,4.26,4.26
		C66.16,71.06,64.26,72.97,61.9,72.97L61.9,72.97z M61.9,62.8c-3.27,0-5.91,2.65-5.91,5.91c0,3.27,2.65,5.91,5.91,5.91
		c3.27,0,5.91-2.65,5.91-5.91C67.82,65.44,65.17,62.8,61.9,62.8L61.9,62.8z"/>
	<polygon class="st1" points="26.18,73.04 26.08,73.04 26.08,60.22 26.18,60.22 26.18,73.04 	"/>
	<path class="st3" d="M62.14,68.64c0,0.15-0.12,0.28-0.27,0.28c-0.15,0-0.28-0.12-0.28-0.28c0-0.15,0.12-0.27,0.28-0.27
		C62.02,68.37,62.14,68.49,62.14,68.64L62.14,68.64z"/>
	<polygon class="st1" points="81.68,60.37 79.5,60.37 79.5,60.24 81.68,60.24 81.68,60.37 	"/>
	<polygon class="st1" points="22.84,60.37 20.75,60.37 20.75,60.25 22.84,60.25 22.84,60.37 	"/>
	<polygon class="st1" points="31.83,60.37 29.74,60.37 29.74,60.25 31.83,60.25 31.83,60.37 	"/>
	<polygon class="st1" points="41.15,77.35 38.31,77.35 38.31,77.22 41.15,77.22 41.15,77.35 	"/>
	<polygon class="st1" points="49.04,77.35 45.66,77.35 45.66,77.22 49.04,77.22 49.04,77.35 	"/>
	<path class="st2" d="M37.25,77.09V60.36c0-0.45,0.4-0.83,0.85-0.83h6.58c5.12,0,7.7,6.28,4.1,9.98c-0.72,0.72-1.62,1.28-2.62,1.53
		l3.87,5.55c0.62,0.9-0.75,1.87-1.35,0.97l-4.63-6.63c-0.5-0.65,0-1.37,0.63-1.37c3.67,0,5.47-4.55,2.9-7.15
		c-0.75-0.75-1.77-1.2-2.9-1.2l-5.75,0v15.88C38.93,78.19,37.25,78.19,37.25,77.09L37.25,77.09z"/>
	<polygon class="st1" points="74.13,77.07 74.01,77.07 74.01,73.72 74.13,73.72 74.13,77.07 	"/>
	<path class="st2" d="M78.08,60.36c0-0.45,0.37-0.82,0.82-0.82c0.45,0,0.83,0.37,0.83,0.82l0,11.7c0,1.42-1.13,2.5-2.53,2.5h-2.95
		c-0.48,0-0.85-0.37-0.85-0.83c0-0.48,0.38-0.85,0.85-0.85h2.95c0.47,0,0.87-0.32,0.87-0.83L78.08,60.36L78.08,60.36z M73.18,77.09
		c0-0.48,0.38-0.85,0.83-0.85h3.3c2.62,0.03,4.1-1.88,4.1-4.18v-11.7c0-0.45,0.38-0.82,0.85-0.82c0.45,0,0.82,0.37,0.82,0.82l0,11.7
		c0,3.2-2.15,5.85-5.78,5.85l-3.3,0C73.55,77.91,73.18,77.54,73.18,77.09L73.18,77.09z"/>
	<polygon class="st1" points="14.13,64.15 14,64.15 14,61.22 14.13,61.22 14.13,64.15 	"/>
	<polygon class="st1" points="5.63,75.88 5.51,75.88 5.51,73.26 5.63,73.26 5.63,75.88 	"/>
	<path class="st2" d="M5.63,75.24c3.85,2.05,9.07,1.53,9.07-3.1c0-3.42-4.5-4.05-5.77-5.07c-2-1.58-0.95-6,5.27-3.48
		c0.98,0.4,0.38,1.95-0.65,1.53c-3.78-1.53-4.42,0.02-3.6,0.67c0.93,0.7,6.4,1.7,6.4,6.35c0,4.58-4.05,6.72-8.72,5.6
		c-0.85-0.17-1.83-0.5-2.8-1.02C3.88,76.21,4.65,74.74,5.63,75.24L5.63,75.24z"/>
	<path class="st2" d="M14.01,61.76c-2.25-0.8-4.95-1.22-6.6,0.6c-1.35,1.42-1.7,4.05,0.1,5.6c2.18,1.95,5.28,1.52,5.45,4.17
		c0.08,1.4-1.15,2.43-2.5,2.52c-1.62,0.1-3.65-0.3-5.3-1.5c-0.87-0.63,0.1-1.97,0.98-1.35c1.92,1.4,5.3,1.65,5.15,0.4
		c-0.1-1.18-2.58-0.98-4.9-3c-3.63-3.18-1.43-9.5,3.72-9.75c1.5-0.07,2.73,0.12,4.47,0.73C15.6,60.54,15.05,62.14,14.01,61.76
		L14.01,61.76z"/>
	<path class="st2" d="M19.25,71.24v-10.9c0-0.47,0.37-0.85,0.82-0.85c0.48,0,0.85,0.38,0.85,0.85v10.9c0,7,10.73,7,10.73,0l0-10.9
		c0-0.47,0.35-0.85,0.82-0.85c0.45,0,0.83,0.38,0.83,0.85v10.9C33.31,80.41,19.25,80.39,19.25,71.24L19.25,71.24z"/>
	<path class="st2" d="M22.68,60.34c0-0.48,0.37-0.85,0.82-0.85c0.48,0,0.85,0.38,0.85,0.85v10.7c0,2.65,3.87,2.65,3.87,0v-10.7
		c0-0.48,0.35-0.85,0.85-0.85c0.45,0,0.83,0.38,0.83,0.85v10.7c0,4.88-7.23,4.88-7.23,0L22.68,60.34L22.68,60.34z"/>
	<path class="st3" d="M44.58,77.56l-2.3-3.33v2.85c0,1.1-1.68,1.1-1.68,0l0-5.45c0-0.9,1.05-1.15,1.53-0.52l3.82,5.48
		C46.58,77.49,45.23,78.46,44.58,77.56L44.58,77.56z"/>
</g>
</svg>
